<svg width="30" height="30" viewBox="0 0 30 30" fill="none" xmlns="http://www.w3.org/2000/svg">
<path d="M8.5 30C9.88071 30 11 28.8807 11 27.5C11 26.1193 9.88071 25 8.5 25C7.11929 25 6 26.1193 6 27.5C6 28.8807 7.11929 30 8.5 30Z" fill="#201E45"/>
<path d="M21.5 30C22.8807 30 24 28.8807 24 27.5C24 26.1193 22.8807 25 21.5 25C20.1193 25 19 26.1193 19 27.5C19 28.8807 20.1193 30 21.5 30Z" fill="#201E45"/>
<path d="M28.7148 7.68967C27.8354 6.82959 26.6581 6.36173 25.4416 6.38889H7.06377L6.7352 3.75411C6.61589 2.72 6.12974 1.7666 5.36892 1.07466C4.6081 0.382718 3.62549 0.00033462 2.60737 0L1.87401 0C1.37699 0 0.90033 0.201934 0.548885 0.561379C0.19744 0.920823 0 1.40834 0 1.91667C0 2.425 0.19744 2.91251 0.548885 3.27195C0.90033 3.6314 1.37699 3.83333 1.87401 3.83333H2.60737C2.70958 3.83445 2.80776 3.87425 2.88297 3.94503C2.95818 4.01582 3.00509 4.11259 3.01466 4.21667L4.88867 19.2421C5.00687 20.277 5.49257 21.2315 6.25353 21.9242C7.0145 22.617 7.99773 22.9998 9.01649 23H21.6623C23.1666 22.9991 24.629 22.4933 25.8252 21.5604C27.0213 20.6274 27.8851 19.3187 28.2838 17.8352L29.8405 12.0456C30.048 11.2827 30.0531 10.4771 29.8553 9.7115C29.6575 8.94593 29.2638 8.24806 28.7148 7.68967ZM24.6745 16.8194C24.4916 17.4932 24.0982 18.0873 23.5543 18.5111C23.0105 18.9349 22.346 19.1651 21.6623 19.1667H9.01649C8.91434 19.1658 8.81616 19.1261 8.7411 19.0552C8.66603 18.9843 8.61946 18.8874 8.61046 18.7833L7.54227 10.2222H25.629C25.7255 10.2215 25.8208 10.2436 25.9075 10.2869C25.9943 10.3302 26.07 10.3934 26.1288 10.4716C26.1877 10.5499 26.228 10.641 26.2466 10.7378C26.2652 10.8347 26.2616 10.9346 26.2362 11.0298L24.6745 16.8194Z" fill="#201E45"/>
</svg>
