<svg width="28" height="31" viewBox="0 0 28 31" fill="none" xmlns="http://www.w3.org/2000/svg">
<path d="M27.2308 25.3305L20.8071 18.4117C19.85 20.0148 18.5833 21.3784 17.0947 22.4092L23.519 29.3281C24.5445 30.4324 26.2074 30.4324 27.2308 29.3281C28.2564 28.2256 28.2564 26.4347 27.2308 25.3305Z" fill="#201E45"/>
<path d="M21.0002 11.3086C21.0002 5.06357 16.2988 0 10.5002 0C4.7016 0 0 5.06357 0 11.3086C0 17.5535 4.7016 22.6169 10.5002 22.6169C16.2988 22.6169 21.0002 17.5535 21.0002 11.3086ZM10.5002 19.7896C6.15756 19.7896 2.62511 15.9855 2.62511 11.3086C2.62511 6.63168 6.15756 2.82728 10.5002 2.82728C14.8426 2.82728 18.3754 6.63168 18.3754 11.3086C18.3754 15.9855 14.8426 19.7896 10.5002 19.7896Z" fill="#201E45"/>
<path d="M4.375 11.3085H6.1248C6.1248 8.71041 8.08767 6.59662 10.5 6.59662V4.71191C7.12309 4.71191 4.375 7.67157 4.375 11.3085Z" fill="#201E45"/>
</svg>
