<svg width="1188" height="571" viewBox="0 0 1188 571" fill="none" xmlns="http://www.w3.org/2000/svg">
<rect width="1188" height="571" rx="12" fill="#201E45"/>
<path fill-rule="evenodd" clip-rule="evenodd" d="M1013.13 344.519C1026.5 338.545 1042.57 324.405 1054.84 332.378C1068.29 341.114 1056.14 365.802 1065.7 378.666C1074 389.827 1094.64 385.568 1102.78 396.849C1110.5 407.554 1109.97 422.949 1106.89 435.779C1103.88 448.352 1096.96 461.331 1085.76 467.814C1074.12 474.555 1056.91 463.239 1045.96 471.055C1035.14 478.776 1028.32 465.896 1018.49 474.832C1008.8 483.627 1007.88 502.277 995.857 497.111C982.758 491.483 989.84 484.601 979.464 474.832C970.792 466.668 954.25 469.275 945.427 461.274C936.001 452.726 923.574 448.034 920.754 435.634C917.846 422.851 915.427 407.22 923.431 396.83C932.199 385.45 950.322 387.657 962.973 380.833C971.36 376.309 952.854 358.637 960.572 353.05C969.768 346.393 1002.77 349.152 1013.13 344.519Z" fill="#FBC33A"/>
<path fill-rule="evenodd" clip-rule="evenodd" d="M298.931 468.713C280.803 477.541 258.519 453.302 238.51 457.101C222.698 460.104 216.347 479.729 202.22 487.077C182.624 497.269 161.473 516.018 139.904 508.389C119.792 501.276 110.452 474.504 107.475 453.568C104.541 432.93 125.354 415.857 123.802 395.136C122.672 380.047 97.6621 370.732 100.165 355.988C102.71 340.999 131.358 343.22 135.108 328.543C141.157 304.868 113.599 276.184 125.886 255.324C135.46 239.07 163.031 246.526 182.291 248.443C199.817 250.187 215.065 261.025 232.141 265.901C249.296 270.8 270.057 265.547 283.678 277.393C297.376 289.307 294.543 311.2 302.742 327.304C310.807 343.145 329.257 354.224 331.641 371.599C334.014 388.897 320.867 403.453 315.411 419.654C309.844 436.182 314.545 461.109 298.931 468.713Z" fill="#FBC33A"/>
<path fill-rule="evenodd" clip-rule="evenodd" d="M498.341 325.059C478.108 335.273 454.156 309.113 431.981 313.829C414.455 317.556 406.935 339.375 391.156 347.852C369.268 359.61 345.441 380.85 321.842 372.997C299.839 365.676 290.235 336.381 287.499 313.36C284.801 290.666 308.212 271.284 307.042 248.463C306.189 231.845 278.839 222.222 281.987 205.889C285.187 189.285 316.737 190.986 321.258 174.694C328.553 148.414 298.897 117.487 313 94.1505C323.989 75.9665 354.213 83.4707 375.414 85.0818C394.705 86.5479 411.245 98.1065 429.957 103.039C448.757 107.995 471.801 101.656 486.518 114.369C501.321 127.156 497.622 151.385 506.246 168.938C514.73 186.205 534.797 197.947 536.972 217.054C539.137 236.077 524.251 252.482 517.807 270.499C511.232 288.881 515.767 316.261 498.341 325.059Z" fill="#FBC33A"/>
</svg>
