<svg width="231" height="85" viewBox="0 0 231 85" fill="none" xmlns="http://www.w3.org/2000/svg">
<path d="M12.6 49H2.5V26.7H14.5C15.5667 26.7 16.4167 26.35 17.05 25.65C17.3833 25.2167 17.55 24.7167 17.55 24.15C17.55 23.0833 17.1833 22.4 16.45 22.1C15.7167 21.8 15.25 21.65 15.05 21.65C14.8833 21.65 14.75 21.65 14.65 21.65H2.5V13H17.6C19.7333 13 21.7167 13.6333 23.55 14.9C25.4167 16.1667 26.7 17.65 27.4 19.35C28.1 21.0167 28.45 22.5667 28.45 24C28.45 26.8667 27.65 29.1667 26.05 30.9C24.4833 32.6333 23 33.8 21.6 34.4C20.2333 35 18.8167 35.3 17.35 35.3H12.6V49ZM37.5004 45.25C35.3004 43.4167 33.6004 41.2333 32.4004 38.7C31.2004 36.1333 30.6004 33.4667 30.6004 30.7C30.6004 25.5667 32.4337 21.2167 36.1004 17.65C39.7671 14.0833 44.2837 12.3 49.6504 12.3C51.9171 12.3 54.5171 12.8167 57.4504 13.85C60.3837 14.8833 62.9671 17.0167 65.2004 20.25C67.4337 23.45 68.5504 26.9667 68.5504 30.8C68.5504 33.5333 67.9671 36.1333 66.8004 38.6C65.6337 41.0667 64.0504 43.15 62.0504 44.85C60.0504 46.55 58.0004 47.8 55.9004 48.6C53.8337 49.3667 51.7004 49.75 49.5004 49.75C45.1004 49.75 41.1004 48.25 37.5004 45.25ZM41.2504 30.9C41.2504 32.4333 41.4504 33.8167 41.8504 35.05C42.2837 36.25 43.0671 37.5333 44.2004 38.9C45.3671 40.2667 47.1504 40.95 49.5504 40.95C52.0504 40.95 53.8504 40.25 54.9504 38.85C56.0837 37.45 56.8337 36.1667 57.2004 35C57.6004 33.8 57.8004 32.3833 57.8004 30.75C57.8004 29.15 57.5671 27.6 57.1004 26.1C56.6671 24.5667 55.7671 23.3 54.4004 22.3C53.0337 21.3 51.4671 20.8 49.7004 20.8C49.1004 20.8 48.5171 20.85 47.9504 20.95C47.4171 21.05 46.5837 21.3333 45.4504 21.8C44.3504 22.2667 43.3671 23.2833 42.5004 24.85C41.6671 26.4167 41.2504 28.4333 41.2504 30.9ZM72.8695 24.15C74.3029 20.8167 76.4695 18.1333 79.3695 16.1C82.3029 14.0333 85.3195 13 88.4195 13H96.1195V21.65H92.2195C89.8529 21.65 87.8862 22.1667 86.3195 23.2C84.7529 24.2 83.6195 25.3667 82.9195 26.7C82.2195 28 81.8695 29.3667 81.8695 30.8C81.8695 33.8333 82.9862 36.1833 85.2195 37.85C87.4862 39.5167 89.7362 40.35 91.9695 40.35H96.1195V49H88.8695C85.5695 49 82.4195 47.9667 79.4195 45.9C76.4529 43.8333 74.3862 41.4167 73.2195 38.65C72.0862 35.85 71.5195 33.25 71.5195 30.85C71.5195 28.55 71.9695 26.3167 72.8695 24.15ZM106.483 28H118.383L114.383 13H124.983L134.483 49H124.033L120.733 36.6H114.283L111.133 49H100.683L106.483 28ZM149.905 49H139.805V26.7H151.805C152.871 26.7 153.721 26.35 154.355 25.65C154.688 25.2167 154.855 24.7167 154.855 24.15C154.855 23.0833 154.488 22.4 153.755 22.1C153.021 21.8 152.555 21.65 152.355 21.65C152.188 21.65 152.055 21.65 151.955 21.65H139.805V13H154.905C157.038 13 159.021 13.6333 160.855 14.9C162.721 16.1667 164.005 17.65 164.705 19.35C165.405 21.0167 165.755 22.5667 165.755 24C165.755 26.8667 164.955 29.1667 163.355 30.9C161.788 32.6333 160.305 33.8 158.905 34.4C157.538 35 156.121 35.3 154.655 35.3H149.905V49Z" fill="#E4E4EF"/>
<path d="M186.405 35.3H168.955V26.7H186.405V35.3ZM214.316 49L204.666 13H215.266L224.766 49H214.316ZM197.466 25.1H207.416L201.416 49H190.966L197.466 25.1Z" fill="#FBC33A"/>
<rect y="62" width="231" height="5" fill="#B58206"/>
<path d="M20.9223 71.56H21.5223V81.985H20.9223V76.555H15.1773V81.985H14.6073V71.56H15.1773V75.955H20.9223V71.56ZM28.5064 75.955H29.1064V81.985H28.5064V80.95C27.8764 81.715 27.0664 82.09 26.0914 82.09C25.2214 82.09 24.4864 81.79 23.8864 81.205C23.2864 80.605 22.9864 79.855 22.9864 78.985C22.9864 78.1 23.2714 77.365 23.8714 76.78C24.4714 76.165 25.2214 75.865 26.0914 75.865C27.0514 75.865 27.8614 76.255 28.5064 77.005V75.955ZM27.8764 80.785C28.3714 80.275 28.6114 79.69 28.6264 78.985C28.6264 78.295 28.3714 77.695 27.8764 77.2C27.3814 76.705 26.7814 76.45 26.0914 76.45C25.3864 76.45 24.8014 76.705 24.3064 77.185C23.8114 77.68 23.5564 78.28 23.5564 78.985C23.5564 79.675 23.8114 80.275 24.3064 80.77C24.8014 81.265 25.4014 81.505 26.0914 81.505C26.7964 81.505 27.3814 81.265 27.8764 80.785ZM35.3395 81.4H36.1645V83.455H35.5795V81.985H30.6145V83.455H30.0295V81.4H30.8395V78.22C30.8395 77.485 31.0345 76.9 31.4245 76.48C31.8295 76.06 32.3845 75.835 33.1045 75.835C33.8245 75.835 34.3795 76.045 34.7695 76.465C35.1595 76.885 35.3395 77.47 35.3395 78.22V81.4ZM34.7545 81.4V78.22C34.7545 77.65 34.6195 77.2 34.3645 76.9C34.1095 76.585 33.6895 76.42 33.1045 76.42C31.9945 76.42 31.4245 77.02 31.4245 78.22V81.4H34.7545ZM41.1474 81.325C41.5674 81.145 41.9424 80.785 42.2724 80.26L42.8124 80.5C42.4374 81.22 41.8524 81.715 41.0574 81.97C40.7574 82.06 40.4124 82.105 40.0374 82.105C39.1374 82.105 38.3874 81.805 37.8024 81.22C37.2024 80.62 36.9174 79.885 36.9174 78.985C36.9174 78.07 37.2024 77.335 37.7874 76.75C38.3874 76.15 39.1374 75.85 40.0374 75.85C40.9374 75.85 41.6724 76.135 42.2574 76.69C42.8574 77.245 43.1424 77.965 43.1424 78.85H37.4874C37.4874 79.675 37.7124 80.32 38.1474 80.8C38.6124 81.28 39.2424 81.52 40.0374 81.52C40.4424 81.52 40.8174 81.46 41.1474 81.325ZM40.0374 76.435C38.7924 76.435 37.9674 77.05 37.5774 78.28H42.4824C42.3774 77.725 42.0924 77.275 41.6124 76.93C41.1624 76.6 40.6374 76.435 40.0374 76.435ZM48.703 78.4L51.598 81.985H50.818L48.283 78.835L48.268 78.85L47.938 79.18V81.985H47.353V79.18L47.008 78.85V78.835L44.458 81.985H43.693L46.573 78.4L44.113 75.955H44.953L47.338 78.325L47.353 78.34V75.955H47.938V78.34V78.325L50.323 75.955H51.178L48.703 78.4ZM56.4257 75.955H57.0107V81.985H56.4257V79.27H52.9457V81.985H52.3607V75.955H52.9457V78.685H56.4257V75.955ZM59.7351 78.385C60.6951 78.385 61.1901 78.58 61.5951 79.015C61.9851 79.435 62.0601 79.81 62.0601 80.245C62.0601 80.755 61.8801 81.175 61.5201 81.505C61.1451 81.835 60.7101 81.985 60.1701 81.985H58.2201V75.955H58.7901V78.385H59.7351ZM61.0851 81.115C61.3551 80.875 61.5051 80.575 61.5051 80.185C61.5051 79.795 61.3551 79.48 61.0701 79.24C60.8001 79.015 60.4701 78.895 60.0801 78.895H58.7901V81.475H60.0801C60.4701 81.475 60.8001 81.355 61.0851 81.115ZM63.0951 81.985H62.5101V75.955H63.0951V81.985ZM66.6539 75.835C65.9939 75.835 65.6789 75.535 65.4239 75.295L65.3639 75.235L65.7689 74.815L65.8439 74.875C66.0539 75.085 66.2189 75.25 66.6539 75.25C67.0739 75.25 67.2539 75.085 67.4639 74.875L67.5389 74.815L67.9439 75.235L67.8689 75.295C67.6289 75.535 67.3139 75.835 66.6539 75.835ZM68.3789 75.955H68.9789V81.985H68.3789V81.265C68.1089 81.79 67.5239 82.06 66.6389 82.06C65.8889 82.06 65.3189 81.85 64.9139 81.415C64.5239 80.995 64.3289 80.395 64.3289 79.63V75.955H64.9139V79.57C64.9139 80.845 65.4989 81.475 66.6389 81.475C67.2089 81.475 67.6439 81.31 67.9289 80.98C68.2289 80.65 68.3789 80.2 68.3789 79.63V75.955ZM74.5385 75.955H79.2185V81.985H78.6335V76.54H75.1235V81.985H74.5385V75.955ZM83.3671 75.835C85.0921 75.835 86.5021 77.245 86.5021 78.97C86.5021 80.695 85.0921 82.105 83.3671 82.105C81.6421 82.105 80.2471 80.695 80.2471 78.97C80.2471 77.245 81.6421 75.835 83.3671 75.835ZM83.3671 81.505C84.7621 81.505 85.9021 80.365 85.9021 78.97C85.9021 77.575 84.7621 76.435 83.3671 76.435C81.9721 76.435 80.8321 77.575 80.8321 78.97C80.8321 80.365 81.9721 81.505 83.3671 81.505ZM90.4716 76.435C89.0766 76.435 87.9366 77.575 87.9366 78.97C87.9366 80.365 89.0766 81.505 90.4716 81.505C91.2666 81.505 91.8966 81.28 92.3166 80.83C92.3616 80.8 92.3916 80.755 92.4216 80.71V81.52C91.9116 81.895 91.2516 82.105 90.4716 82.105C88.7466 82.105 87.3516 80.695 87.3516 78.97C87.3516 77.245 88.7466 75.835 90.4716 75.835C91.2516 75.835 91.9116 76.045 92.4216 76.42V77.215C92.3916 77.185 92.3466 77.14 92.3166 77.11C91.8966 76.66 91.2666 76.435 90.4716 76.435ZM93.015 75.97H96.57V76.57H95.085V82H94.485V76.57H93.015V75.97ZM102.701 75.955H103.301V81.985H102.701V80.95C102.071 81.715 101.261 82.09 100.286 82.09C99.4157 82.09 98.6807 81.79 98.0807 81.205C97.4807 80.605 97.1807 79.855 97.1807 78.985C97.1807 78.1 97.4657 77.365 98.0657 76.78C98.6657 76.165 99.4157 75.865 100.286 75.865C101.246 75.865 102.056 76.255 102.701 77.005V75.955ZM102.071 80.785C102.566 80.275 102.806 79.69 102.821 78.985C102.821 78.295 102.566 77.695 102.071 77.2C101.576 76.705 100.976 76.45 100.286 76.45C99.5807 76.45 98.9957 76.705 98.5007 77.185C98.0057 77.68 97.7507 78.28 97.7507 78.985C97.7507 79.675 98.0057 80.275 98.5007 80.77C98.9957 81.265 99.5957 81.505 100.286 81.505C100.991 81.505 101.576 81.265 102.071 80.785ZM107.899 79.015C108.304 79.435 108.379 79.81 108.379 80.245C108.379 80.755 108.199 81.175 107.824 81.505C107.464 81.835 107.014 81.985 106.489 81.985H104.524V75.955H105.994C106.459 75.955 106.834 76.075 107.104 76.315C107.389 76.585 107.599 76.96 107.599 77.425C107.599 77.905 107.434 78.25 107.074 78.505C107.419 78.61 107.674 78.775 107.899 79.015ZM105.994 76.555H105.109V78.385H106.039C106.324 78.385 106.564 78.295 106.759 78.115C106.954 77.935 107.044 77.725 107.044 77.485C107.044 77.185 106.954 76.975 106.759 76.81C106.549 76.63 106.279 76.555 105.994 76.555ZM107.389 81.115C107.674 80.875 107.809 80.575 107.809 80.185C107.809 79.795 107.674 79.48 107.389 79.24C107.119 79.015 106.789 78.895 106.384 78.895H105.109V81.475H106.384C106.774 81.475 107.119 81.355 107.389 81.115ZM116.242 75.955H116.827V81.34C116.827 82.45 115.927 83.365 114.817 83.365V82.765C115.537 82.765 116.137 82.225 116.227 81.52C115.867 81.88 115.372 82.105 114.817 82.105C114.082 82.105 113.437 81.715 113.077 81.13C112.732 81.715 112.087 82.105 111.352 82.105C110.242 82.105 109.342 81.205 109.342 80.08V75.955H109.927V80.08C109.927 80.875 110.572 81.52 111.352 81.52C112.147 81.52 112.792 80.875 112.792 80.08V75.955H113.377V80.08C113.377 80.875 114.022 81.52 114.817 81.52C115.597 81.52 116.242 80.875 116.242 80.08V75.955ZM122.049 75.955H122.649V81.985H122.049V81.265C121.779 81.79 121.194 82.06 120.309 82.06C119.559 82.06 118.989 81.85 118.584 81.415C118.194 80.995 117.999 80.395 117.999 79.63V75.955H118.584V79.57C118.584 80.845 119.169 81.475 120.309 81.475C120.879 81.475 121.314 81.31 121.599 80.98C121.899 80.65 122.049 80.2 122.049 79.63V75.955ZM125.21 78.445L128.765 81.985H127.97L124.82 78.85L124.475 79.18V81.985H123.89V75.715H124.475V78.325L127.1 75.73H127.94L125.21 78.445ZM135.487 75.85C137.212 75.85 138.622 77.245 138.622 78.97C138.622 80.695 137.212 82.105 135.487 82.105C134.722 82.105 134.047 81.91 133.552 81.52V80.725C133.582 80.755 133.612 80.8 133.642 80.83C134.077 81.295 134.692 81.52 135.487 81.52C136.792 81.52 137.872 80.53 138.007 79.27H135.082V78.685H138.007C137.872 77.425 136.792 76.435 135.487 76.435C134.692 76.435 134.077 76.66 133.642 77.11C133.612 77.155 133.582 77.185 133.552 77.23V76.435C134.047 76.045 134.722 75.85 135.487 75.85ZM142.051 75.7L144.901 81.985H144.271L142.066 77.185L139.861 81.985H139.201L142.051 75.7ZM149.736 81.325C150.156 81.145 150.531 80.785 150.861 80.26L151.401 80.5C151.026 81.22 150.441 81.715 149.646 81.97C149.346 82.06 149.001 82.105 148.626 82.105C147.726 82.105 146.976 81.805 146.391 81.22C145.791 80.62 145.506 79.885 145.506 78.985C145.506 78.07 145.791 77.335 146.376 76.75C146.976 76.15 147.726 75.85 148.626 75.85C149.526 75.85 150.261 76.135 150.846 76.69C151.446 77.245 151.731 77.965 151.731 78.85H146.076C146.076 79.675 146.301 80.32 146.736 80.8C147.201 81.28 147.831 81.52 148.626 81.52C149.031 81.52 149.406 81.46 149.736 81.325ZM148.626 76.435C147.381 76.435 146.556 77.05 146.166 78.28H151.071C150.966 77.725 150.681 77.275 150.201 76.93C149.751 76.6 149.226 76.435 148.626 76.435ZM154.082 78.445L157.637 81.985H156.842L153.692 78.85L153.347 79.18V81.985H152.762V75.715H153.347V78.325L155.972 75.73H156.812L154.082 78.445ZM157.922 75.97H161.477V76.57H159.992V82H159.392V76.57H157.922V75.97ZM167.563 76.765C168.163 77.365 168.478 78.1 168.478 78.985C168.478 79.855 168.178 80.59 167.578 81.19C166.978 81.79 166.228 82.09 165.358 82.09C164.353 82.09 163.528 81.685 162.868 80.86V84.82H162.283V75.955H162.868V77.095C163.498 76.285 164.323 75.865 165.358 75.865C166.228 75.865 166.963 76.165 167.563 76.765ZM167.143 80.785C167.638 80.275 167.893 79.69 167.893 78.985C167.893 78.295 167.638 77.695 167.143 77.2C166.648 76.705 166.048 76.45 165.358 76.45C164.653 76.45 164.068 76.69 163.573 77.185C163.078 77.68 162.838 78.28 162.838 78.985C162.838 79.675 163.078 80.26 163.573 80.77C164.068 81.265 164.668 81.505 165.358 81.505C166.063 81.505 166.648 81.265 167.143 80.785ZM172.444 75.835C174.169 75.835 175.579 77.245 175.579 78.97C175.579 80.695 174.169 82.105 172.444 82.105C170.719 82.105 169.324 80.695 169.324 78.97C169.324 77.245 170.719 75.835 172.444 75.835ZM172.444 81.505C173.839 81.505 174.979 80.365 174.979 78.97C174.979 77.575 173.839 76.435 172.444 76.435C171.049 76.435 169.909 77.575 169.909 78.97C169.909 80.365 171.049 81.505 172.444 81.505ZM176.189 75.97H179.744V76.57H178.259V82H177.659V76.57H176.189V75.97ZM184.6 81.325C185.02 81.145 185.395 80.785 185.725 80.26L186.265 80.5C185.89 81.22 185.305 81.715 184.51 81.97C184.21 82.06 183.865 82.105 183.49 82.105C182.59 82.105 181.84 81.805 181.255 81.22C180.655 80.62 180.37 79.885 180.37 78.985C180.37 78.07 180.655 77.335 181.24 76.75C181.84 76.15 182.59 75.85 183.49 75.85C184.39 75.85 185.125 76.135 185.71 76.69C186.31 77.245 186.595 77.965 186.595 78.85H180.94C180.94 79.675 181.165 80.32 181.6 80.8C182.065 81.28 182.695 81.52 183.49 81.52C183.895 81.52 184.27 81.46 184.6 81.325ZM183.49 76.435C182.245 76.435 181.42 77.05 181.03 78.28H185.935C185.83 77.725 185.545 77.275 185.065 76.93C184.615 76.6 184.09 76.435 183.49 76.435ZM190.025 78.94L192.065 81.985H191.36L189.65 79.465L187.94 81.985H187.235L189.29 78.955L187.265 75.955H187.97L189.65 78.46L191.315 75.955H192.02L190.025 78.94ZM196.992 75.955H197.577V81.985H196.992V79.27H193.512V81.985H192.927V75.955H193.512V78.685H196.992V75.955ZM202.792 75.955H203.392V81.985H202.792V81.265C202.522 81.79 201.937 82.06 201.052 82.06C200.302 82.06 199.732 81.85 199.327 81.415C198.937 80.995 198.742 80.395 198.742 79.63V75.955H199.327V79.57C199.327 80.845 199.912 81.475 201.052 81.475C201.622 81.475 202.057 81.31 202.342 80.98C202.642 80.65 202.792 80.2 202.792 79.63V75.955ZM205.952 78.445L209.507 81.985H208.712L205.562 78.85L205.217 79.18V81.985H204.632V75.715H205.217V78.325L207.842 75.73H208.682L205.952 78.445ZM214.217 75.955H214.817V81.985H214.217V81.265C213.947 81.79 213.362 82.06 212.477 82.06C211.727 82.06 211.157 81.85 210.752 81.415C210.362 80.995 210.167 80.395 210.167 79.63V75.955H210.752V79.57C210.752 80.845 211.337 81.475 212.477 81.475C213.047 81.475 213.482 81.31 213.767 80.98C214.067 80.65 214.217 80.2 214.217 79.63V75.955Z" fill="#E4E4EF"/>
<path d="M12.6 49H2.5V26.7H14.5C15.5667 26.7 16.4167 26.35 17.05 25.65C17.3833 25.2167 17.55 24.7167 17.55 24.15C17.55 23.0833 17.1833 22.4 16.45 22.1C15.7167 21.8 15.25 21.65 15.05 21.65C14.8833 21.65 14.75 21.65 14.65 21.65H2.5V13H17.6C19.7333 13 21.7167 13.6333 23.55 14.9C25.4167 16.1667 26.7 17.65 27.4 19.35C28.1 21.0167 28.45 22.5667 28.45 24C28.45 26.8667 27.65 29.1667 26.05 30.9C24.4833 32.6333 23 33.8 21.6 34.4C20.2333 35 18.8167 35.3 17.35 35.3H12.6V49ZM37.5004 45.25C35.3004 43.4167 33.6004 41.2333 32.4004 38.7C31.2004 36.1333 30.6004 33.4667 30.6004 30.7C30.6004 25.5667 32.4337 21.2167 36.1004 17.65C39.7671 14.0833 44.2837 12.3 49.6504 12.3C51.9171 12.3 54.5171 12.8167 57.4504 13.85C60.3837 14.8833 62.9671 17.0167 65.2004 20.25C67.4337 23.45 68.5504 26.9667 68.5504 30.8C68.5504 33.5333 67.9671 36.1333 66.8004 38.6C65.6337 41.0667 64.0504 43.15 62.0504 44.85C60.0504 46.55 58.0004 47.8 55.9004 48.6C53.8337 49.3667 51.7004 49.75 49.5004 49.75C45.1004 49.75 41.1004 48.25 37.5004 45.25ZM41.2504 30.9C41.2504 32.4333 41.4504 33.8167 41.8504 35.05C42.2837 36.25 43.0671 37.5333 44.2004 38.9C45.3671 40.2667 47.1504 40.95 49.5504 40.95C52.0504 40.95 53.8504 40.25 54.9504 38.85C56.0837 37.45 56.8337 36.1667 57.2004 35C57.6004 33.8 57.8004 32.3833 57.8004 30.75C57.8004 29.15 57.5671 27.6 57.1004 26.1C56.6671 24.5667 55.7671 23.3 54.4004 22.3C53.0337 21.3 51.4671 20.8 49.7004 20.8C49.1004 20.8 48.5171 20.85 47.9504 20.95C47.4171 21.05 46.5837 21.3333 45.4504 21.8C44.3504 22.2667 43.3671 23.2833 42.5004 24.85C41.6671 26.4167 41.2504 28.4333 41.2504 30.9ZM72.8695 24.15C74.3029 20.8167 76.4695 18.1333 79.3695 16.1C82.3029 14.0333 85.3195 13 88.4195 13H96.1195V21.65H92.2195C89.8529 21.65 87.8862 22.1667 86.3195 23.2C84.7529 24.2 83.6195 25.3667 82.9195 26.7C82.2195 28 81.8695 29.3667 81.8695 30.8C81.8695 33.8333 82.9862 36.1833 85.2195 37.85C87.4862 39.5167 89.7362 40.35 91.9695 40.35H96.1195V49H88.8695C85.5695 49 82.4195 47.9667 79.4195 45.9C76.4529 43.8333 74.3862 41.4167 73.2195 38.65C72.0862 35.85 71.5195 33.25 71.5195 30.85C71.5195 28.55 71.9695 26.3167 72.8695 24.15ZM106.483 28H118.383L114.383 13H124.983L134.483 49H124.033L120.733 36.6H114.283L111.133 49H100.683L106.483 28ZM149.905 49H139.805V26.7H151.805C152.871 26.7 153.721 26.35 154.355 25.65C154.688 25.2167 154.855 24.7167 154.855 24.15C154.855 23.0833 154.488 22.4 153.755 22.1C153.021 21.8 152.555 21.65 152.355 21.65C152.188 21.65 152.055 21.65 151.955 21.65H139.805V13H154.905C157.038 13 159.021 13.6333 160.855 14.9C162.721 16.1667 164.005 17.65 164.705 19.35C165.405 21.0167 165.755 22.5667 165.755 24C165.755 26.8667 164.955 29.1667 163.355 30.9C161.788 32.6333 160.305 33.8 158.905 34.4C157.538 35 156.121 35.3 154.655 35.3H149.905V49Z" fill="#E4E4EF"/>
<path d="M186.405 35.3H168.955V26.7H186.405V35.3ZM214.316 49L204.666 13H215.266L224.766 49H214.316ZM197.466 25.1H207.416L201.416 49H190.966L197.466 25.1Z" fill="#FBC33A"/>
<rect y="62" width="231" height="5" fill="#B58206"/>
<path d="M20.9223 71.56H21.5223V81.985H20.9223V76.555H15.1773V81.985H14.6073V71.56H15.1773V75.955H20.9223V71.56ZM28.5064 75.955H29.1064V81.985H28.5064V80.95C27.8764 81.715 27.0664 82.09 26.0914 82.09C25.2214 82.09 24.4864 81.79 23.8864 81.205C23.2864 80.605 22.9864 79.855 22.9864 78.985C22.9864 78.1 23.2714 77.365 23.8714 76.78C24.4714 76.165 25.2214 75.865 26.0914 75.865C27.0514 75.865 27.8614 76.255 28.5064 77.005V75.955ZM27.8764 80.785C28.3714 80.275 28.6114 79.69 28.6264 78.985C28.6264 78.295 28.3714 77.695 27.8764 77.2C27.3814 76.705 26.7814 76.45 26.0914 76.45C25.3864 76.45 24.8014 76.705 24.3064 77.185C23.8114 77.68 23.5564 78.28 23.5564 78.985C23.5564 79.675 23.8114 80.275 24.3064 80.77C24.8014 81.265 25.4014 81.505 26.0914 81.505C26.7964 81.505 27.3814 81.265 27.8764 80.785ZM35.3395 81.4H36.1645V83.455H35.5795V81.985H30.6145V83.455H30.0295V81.4H30.8395V78.22C30.8395 77.485 31.0345 76.9 31.4245 76.48C31.8295 76.06 32.3845 75.835 33.1045 75.835C33.8245 75.835 34.3795 76.045 34.7695 76.465C35.1595 76.885 35.3395 77.47 35.3395 78.22V81.4ZM34.7545 81.4V78.22C34.7545 77.65 34.6195 77.2 34.3645 76.9C34.1095 76.585 33.6895 76.42 33.1045 76.42C31.9945 76.42 31.4245 77.02 31.4245 78.22V81.4H34.7545ZM41.1474 81.325C41.5674 81.145 41.9424 80.785 42.2724 80.26L42.8124 80.5C42.4374 81.22 41.8524 81.715 41.0574 81.97C40.7574 82.06 40.4124 82.105 40.0374 82.105C39.1374 82.105 38.3874 81.805 37.8024 81.22C37.2024 80.62 36.9174 79.885 36.9174 78.985C36.9174 78.07 37.2024 77.335 37.7874 76.75C38.3874 76.15 39.1374 75.85 40.0374 75.85C40.9374 75.85 41.6724 76.135 42.2574 76.69C42.8574 77.245 43.1424 77.965 43.1424 78.85H37.4874C37.4874 79.675 37.7124 80.32 38.1474 80.8C38.6124 81.28 39.2424 81.52 40.0374 81.52C40.4424 81.52 40.8174 81.46 41.1474 81.325ZM40.0374 76.435C38.7924 76.435 37.9674 77.05 37.5774 78.28H42.4824C42.3774 77.725 42.0924 77.275 41.6124 76.93C41.1624 76.6 40.6374 76.435 40.0374 76.435ZM48.703 78.4L51.598 81.985H50.818L48.283 78.835L48.268 78.85L47.938 79.18V81.985H47.353V79.18L47.008 78.85V78.835L44.458 81.985H43.693L46.573 78.4L44.113 75.955H44.953L47.338 78.325L47.353 78.34V75.955H47.938V78.34V78.325L50.323 75.955H51.178L48.703 78.4ZM56.4257 75.955H57.0107V81.985H56.4257V79.27H52.9457V81.985H52.3607V75.955H52.9457V78.685H56.4257V75.955ZM59.7351 78.385C60.6951 78.385 61.1901 78.58 61.5951 79.015C61.9851 79.435 62.0601 79.81 62.0601 80.245C62.0601 80.755 61.8801 81.175 61.5201 81.505C61.1451 81.835 60.7101 81.985 60.1701 81.985H58.2201V75.955H58.7901V78.385H59.7351ZM61.0851 81.115C61.3551 80.875 61.5051 80.575 61.5051 80.185C61.5051 79.795 61.3551 79.48 61.0701 79.24C60.8001 79.015 60.4701 78.895 60.0801 78.895H58.7901V81.475H60.0801C60.4701 81.475 60.8001 81.355 61.0851 81.115ZM63.0951 81.985H62.5101V75.955H63.0951V81.985ZM66.6539 75.835C65.9939 75.835 65.6789 75.535 65.4239 75.295L65.3639 75.235L65.7689 74.815L65.8439 74.875C66.0539 75.085 66.2189 75.25 66.6539 75.25C67.0739 75.25 67.2539 75.085 67.4639 74.875L67.5389 74.815L67.9439 75.235L67.8689 75.295C67.6289 75.535 67.3139 75.835 66.6539 75.835ZM68.3789 75.955H68.9789V81.985H68.3789V81.265C68.1089 81.79 67.5239 82.06 66.6389 82.06C65.8889 82.06 65.3189 81.85 64.9139 81.415C64.5239 80.995 64.3289 80.395 64.3289 79.63V75.955H64.9139V79.57C64.9139 80.845 65.4989 81.475 66.6389 81.475C67.2089 81.475 67.6439 81.31 67.9289 80.98C68.2289 80.65 68.3789 80.2 68.3789 79.63V75.955ZM74.5385 75.955H79.2185V81.985H78.6335V76.54H75.1235V81.985H74.5385V75.955ZM83.3671 75.835C85.0921 75.835 86.5021 77.245 86.5021 78.97C86.5021 80.695 85.0921 82.105 83.3671 82.105C81.6421 82.105 80.2471 80.695 80.2471 78.97C80.2471 77.245 81.6421 75.835 83.3671 75.835ZM83.3671 81.505C84.7621 81.505 85.9021 80.365 85.9021 78.97C85.9021 77.575 84.7621 76.435 83.3671 76.435C81.9721 76.435 80.8321 77.575 80.8321 78.97C80.8321 80.365 81.9721 81.505 83.3671 81.505ZM90.4716 76.435C89.0766 76.435 87.9366 77.575 87.9366 78.97C87.9366 80.365 89.0766 81.505 90.4716 81.505C91.2666 81.505 91.8966 81.28 92.3166 80.83C92.3616 80.8 92.3916 80.755 92.4216 80.71V81.52C91.9116 81.895 91.2516 82.105 90.4716 82.105C88.7466 82.105 87.3516 80.695 87.3516 78.97C87.3516 77.245 88.7466 75.835 90.4716 75.835C91.2516 75.835 91.9116 76.045 92.4216 76.42V77.215C92.3916 77.185 92.3466 77.14 92.3166 77.11C91.8966 76.66 91.2666 76.435 90.4716 76.435ZM93.015 75.97H96.57V76.57H95.085V82H94.485V76.57H93.015V75.97ZM102.701 75.955H103.301V81.985H102.701V80.95C102.071 81.715 101.261 82.09 100.286 82.09C99.4157 82.09 98.6807 81.79 98.0807 81.205C97.4807 80.605 97.1807 79.855 97.1807 78.985C97.1807 78.1 97.4657 77.365 98.0657 76.78C98.6657 76.165 99.4157 75.865 100.286 75.865C101.246 75.865 102.056 76.255 102.701 77.005V75.955ZM102.071 80.785C102.566 80.275 102.806 79.69 102.821 78.985C102.821 78.295 102.566 77.695 102.071 77.2C101.576 76.705 100.976 76.45 100.286 76.45C99.5807 76.45 98.9957 76.705 98.5007 77.185C98.0057 77.68 97.7507 78.28 97.7507 78.985C97.7507 79.675 98.0057 80.275 98.5007 80.77C98.9957 81.265 99.5957 81.505 100.286 81.505C100.991 81.505 101.576 81.265 102.071 80.785ZM107.899 79.015C108.304 79.435 108.379 79.81 108.379 80.245C108.379 80.755 108.199 81.175 107.824 81.505C107.464 81.835 107.014 81.985 106.489 81.985H104.524V75.955H105.994C106.459 75.955 106.834 76.075 107.104 76.315C107.389 76.585 107.599 76.96 107.599 77.425C107.599 77.905 107.434 78.25 107.074 78.505C107.419 78.61 107.674 78.775 107.899 79.015ZM105.994 76.555H105.109V78.385H106.039C106.324 78.385 106.564 78.295 106.759 78.115C106.954 77.935 107.044 77.725 107.044 77.485C107.044 77.185 106.954 76.975 106.759 76.81C106.549 76.63 106.279 76.555 105.994 76.555ZM107.389 81.115C107.674 80.875 107.809 80.575 107.809 80.185C107.809 79.795 107.674 79.48 107.389 79.24C107.119 79.015 106.789 78.895 106.384 78.895H105.109V81.475H106.384C106.774 81.475 107.119 81.355 107.389 81.115ZM116.242 75.955H116.827V81.34C116.827 82.45 115.927 83.365 114.817 83.365V82.765C115.537 82.765 116.137 82.225 116.227 81.52C115.867 81.88 115.372 82.105 114.817 82.105C114.082 82.105 113.437 81.715 113.077 81.13C112.732 81.715 112.087 82.105 111.352 82.105C110.242 82.105 109.342 81.205 109.342 80.08V75.955H109.927V80.08C109.927 80.875 110.572 81.52 111.352 81.52C112.147 81.52 112.792 80.875 112.792 80.08V75.955H113.377V80.08C113.377 80.875 114.022 81.52 114.817 81.52C115.597 81.52 116.242 80.875 116.242 80.08V75.955ZM122.049 75.955H122.649V81.985H122.049V81.265C121.779 81.79 121.194 82.06 120.309 82.06C119.559 82.06 118.989 81.85 118.584 81.415C118.194 80.995 117.999 80.395 117.999 79.63V75.955H118.584V79.57C118.584 80.845 119.169 81.475 120.309 81.475C120.879 81.475 121.314 81.31 121.599 80.98C121.899 80.65 122.049 80.2 122.049 79.63V75.955ZM125.21 78.445L128.765 81.985H127.97L124.82 78.85L124.475 79.18V81.985H123.89V75.715H124.475V78.325L127.1 75.73H127.94L125.21 78.445ZM135.487 75.85C137.212 75.85 138.622 77.245 138.622 78.97C138.622 80.695 137.212 82.105 135.487 82.105C134.722 82.105 134.047 81.91 133.552 81.52V80.725C133.582 80.755 133.612 80.8 133.642 80.83C134.077 81.295 134.692 81.52 135.487 81.52C136.792 81.52 137.872 80.53 138.007 79.27H135.082V78.685H138.007C137.872 77.425 136.792 76.435 135.487 76.435C134.692 76.435 134.077 76.66 133.642 77.11C133.612 77.155 133.582 77.185 133.552 77.23V76.435C134.047 76.045 134.722 75.85 135.487 75.85ZM142.051 75.7L144.901 81.985H144.271L142.066 77.185L139.861 81.985H139.201L142.051 75.7ZM149.736 81.325C150.156 81.145 150.531 80.785 150.861 80.26L151.401 80.5C151.026 81.22 150.441 81.715 149.646 81.97C149.346 82.06 149.001 82.105 148.626 82.105C147.726 82.105 146.976 81.805 146.391 81.22C145.791 80.62 145.506 79.885 145.506 78.985C145.506 78.07 145.791 77.335 146.376 76.75C146.976 76.15 147.726 75.85 148.626 75.85C149.526 75.85 150.261 76.135 150.846 76.69C151.446 77.245 151.731 77.965 151.731 78.85H146.076C146.076 79.675 146.301 80.32 146.736 80.8C147.201 81.28 147.831 81.52 148.626 81.52C149.031 81.52 149.406 81.46 149.736 81.325ZM148.626 76.435C147.381 76.435 146.556 77.05 146.166 78.28H151.071C150.966 77.725 150.681 77.275 150.201 76.93C149.751 76.6 149.226 76.435 148.626 76.435ZM154.082 78.445L157.637 81.985H156.842L153.692 78.85L153.347 79.18V81.985H152.762V75.715H153.347V78.325L155.972 75.73H156.812L154.082 78.445ZM157.922 75.97H161.477V76.57H159.992V82H159.392V76.57H157.922V75.97ZM167.563 76.765C168.163 77.365 168.478 78.1 168.478 78.985C168.478 79.855 168.178 80.59 167.578 81.19C166.978 81.79 166.228 82.09 165.358 82.09C164.353 82.09 163.528 81.685 162.868 80.86V84.82H162.283V75.955H162.868V77.095C163.498 76.285 164.323 75.865 165.358 75.865C166.228 75.865 166.963 76.165 167.563 76.765ZM167.143 80.785C167.638 80.275 167.893 79.69 167.893 78.985C167.893 78.295 167.638 77.695 167.143 77.2C166.648 76.705 166.048 76.45 165.358 76.45C164.653 76.45 164.068 76.69 163.573 77.185C163.078 77.68 162.838 78.28 162.838 78.985C162.838 79.675 163.078 80.26 163.573 80.77C164.068 81.265 164.668 81.505 165.358 81.505C166.063 81.505 166.648 81.265 167.143 80.785ZM172.444 75.835C174.169 75.835 175.579 77.245 175.579 78.97C175.579 80.695 174.169 82.105 172.444 82.105C170.719 82.105 169.324 80.695 169.324 78.97C169.324 77.245 170.719 75.835 172.444 75.835ZM172.444 81.505C173.839 81.505 174.979 80.365 174.979 78.97C174.979 77.575 173.839 76.435 172.444 76.435C171.049 76.435 169.909 77.575 169.909 78.97C169.909 80.365 171.049 81.505 172.444 81.505ZM176.189 75.97H179.744V76.57H178.259V82H177.659V76.57H176.189V75.97ZM184.6 81.325C185.02 81.145 185.395 80.785 185.725 80.26L186.265 80.5C185.89 81.22 185.305 81.715 184.51 81.97C184.21 82.06 183.865 82.105 183.49 82.105C182.59 82.105 181.84 81.805 181.255 81.22C180.655 80.62 180.37 79.885 180.37 78.985C180.37 78.07 180.655 77.335 181.24 76.75C181.84 76.15 182.59 75.85 183.49 75.85C184.39 75.85 185.125 76.135 185.71 76.69C186.31 77.245 186.595 77.965 186.595 78.85H180.94C180.94 79.675 181.165 80.32 181.6 80.8C182.065 81.28 182.695 81.52 183.49 81.52C183.895 81.52 184.27 81.46 184.6 81.325ZM183.49 76.435C182.245 76.435 181.42 77.05 181.03 78.28H185.935C185.83 77.725 185.545 77.275 185.065 76.93C184.615 76.6 184.09 76.435 183.49 76.435ZM190.025 78.94L192.065 81.985H191.36L189.65 79.465L187.94 81.985H187.235L189.29 78.955L187.265 75.955H187.97L189.65 78.46L191.315 75.955H192.02L190.025 78.94ZM196.992 75.955H197.577V81.985H196.992V79.27H193.512V81.985H192.927V75.955H193.512V78.685H196.992V75.955ZM202.792 75.955H203.392V81.985H202.792V81.265C202.522 81.79 201.937 82.06 201.052 82.06C200.302 82.06 199.732 81.85 199.327 81.415C198.937 80.995 198.742 80.395 198.742 79.63V75.955H199.327V79.57C199.327 80.845 199.912 81.475 201.052 81.475C201.622 81.475 202.057 81.31 202.342 80.98C202.642 80.65 202.792 80.2 202.792 79.63V75.955ZM205.952 78.445L209.507 81.985H208.712L205.562 78.85L205.217 79.18V81.985H204.632V75.715H205.217V78.325L207.842 75.73H208.682L205.952 78.445ZM214.217 75.955H214.817V81.985H214.217V81.265C213.947 81.79 213.362 82.06 212.477 82.06C211.727 82.06 211.157 81.85 210.752 81.415C210.362 80.995 210.167 80.395 210.167 79.63V75.955H210.752V79.57C210.752 80.845 211.337 81.475 212.477 81.475C213.047 81.475 213.482 81.31 213.767 80.98C214.067 80.65 214.217 80.2 214.217 79.63V75.955Z" fill="#E4E4EF"/>
</svg>
