<svg width="238" height="82" viewBox="0 0 238 82" fill="none" xmlns="http://www.w3.org/2000/svg">
<path d="M12.6 49H2.5V26.7H14.5C15.5667 26.7 16.4167 26.35 17.05 25.65C17.3833 25.2167 17.55 24.7167 17.55 24.15C17.55 23.0833 17.1833 22.4 16.45 22.1C15.7167 21.8 15.25 21.65 15.05 21.65C14.8833 21.65 14.75 21.65 14.65 21.65H2.5V13H17.6C19.7333 13 21.7167 13.6333 23.55 14.9C25.4167 16.1667 26.7 17.65 27.4 19.35C28.1 21.0167 28.45 22.5667 28.45 24C28.45 26.8667 27.65 29.1667 26.05 30.9C24.4833 32.6333 23 33.8 21.6 34.4C20.2333 35 18.8167 35.3 17.35 35.3H12.6V49ZM37.5004 45.25C35.3004 43.4167 33.6004 41.2333 32.4004 38.7C31.2004 36.1333 30.6004 33.4667 30.6004 30.7C30.6004 25.5667 32.4337 21.2167 36.1004 17.65C39.7671 14.0833 44.2837 12.3 49.6504 12.3C51.9171 12.3 54.5171 12.8167 57.4504 13.85C60.3837 14.8833 62.9671 17.0167 65.2004 20.25C67.4337 23.45 68.5504 26.9667 68.5504 30.8C68.5504 33.5333 67.9671 36.1333 66.8004 38.6C65.6337 41.0667 64.0504 43.15 62.0504 44.85C60.0504 46.55 58.0004 47.8 55.9004 48.6C53.8337 49.3667 51.7004 49.75 49.5004 49.75C45.1004 49.75 41.1004 48.25 37.5004 45.25ZM41.2504 30.9C41.2504 32.4333 41.4504 33.8167 41.8504 35.05C42.2837 36.25 43.0671 37.5333 44.2004 38.9C45.3671 40.2667 47.1504 40.95 49.5504 40.95C52.0504 40.95 53.8504 40.25 54.9504 38.85C56.0837 37.45 56.8337 36.1667 57.2004 35C57.6004 33.8 57.8004 32.3833 57.8004 30.75C57.8004 29.15 57.5671 27.6 57.1004 26.1C56.6671 24.5667 55.7671 23.3 54.4004 22.3C53.0337 21.3 51.4671 20.8 49.7004 20.8C49.1004 20.8 48.5171 20.85 47.9504 20.95C47.4171 21.05 46.5837 21.3333 45.4504 21.8C44.3504 22.2667 43.3671 23.2833 42.5004 24.85C41.6671 26.4167 41.2504 28.4333 41.2504 30.9ZM72.8695 24.15C74.3029 20.8167 76.4695 18.1333 79.3695 16.1C82.3029 14.0333 85.3195 13 88.4195 13H96.1195V21.65H92.2195C89.8529 21.65 87.8862 22.1667 86.3195 23.2C84.7529 24.2 83.6195 25.3667 82.9195 26.7C82.2195 28 81.8695 29.3667 81.8695 30.8C81.8695 33.8333 82.9862 36.1833 85.2195 37.85C87.4862 39.5167 89.7362 40.35 91.9695 40.35H96.1195V49H88.8695C85.5695 49 82.4195 47.9667 79.4195 45.9C76.4529 43.8333 74.3862 41.4167 73.2195 38.65C72.0862 35.85 71.5195 33.25 71.5195 30.85C71.5195 28.55 71.9695 26.3167 72.8695 24.15ZM106.483 28H118.383L114.383 13H124.983L134.483 49H124.033L120.733 36.6H114.283L111.133 49H100.683L106.483 28ZM149.905 49H139.805V26.7H151.805C152.871 26.7 153.721 26.35 154.355 25.65C154.688 25.2167 154.855 24.7167 154.855 24.15C154.855 23.0833 154.488 22.4 153.755 22.1C153.021 21.8 152.555 21.65 152.355 21.65C152.188 21.65 152.055 21.65 151.955 21.65H139.805V13H154.905C157.038 13 159.021 13.6333 160.855 14.9C162.721 16.1667 164.005 17.65 164.705 19.35C165.405 21.0167 165.755 22.5667 165.755 24C165.755 26.8667 164.955 29.1667 163.355 30.9C161.788 32.6333 160.305 33.8 158.905 34.4C157.538 35 156.121 35.3 154.655 35.3H149.905V49Z" fill="#201E45"/>
<path d="M186.405 35.3H168.955V26.7H186.405V35.3ZM214.316 49L204.666 13H215.266L224.766 49H214.316ZM197.466 25.1H207.416L201.416 49H190.966L197.466 25.1Z" fill="#FBC33A"/>
<rect y="62" width="231" height="5" fill="#B58206"/>
<path d="M50.6378 70.648H51.1178V78.988H50.6378V74.644H46.0418V78.988H45.5858V70.648H46.0418V74.164H50.6378V70.648ZM56.7051 74.164H57.1851V78.988H56.7051V78.16C56.2011 78.772 55.5531 79.072 54.7731 79.072C54.0771 79.072 53.4891 78.832 53.0091 78.364C52.5291 77.884 52.2891 77.284 52.2891 76.588C52.2891 75.88 52.5171 75.292 52.9971 74.824C53.4771 74.332 54.0771 74.092 54.7731 74.092C55.5411 74.092 56.1891 74.404 56.7051 75.004V74.164ZM56.2011 78.028C56.5971 77.62 56.7891 77.152 56.8011 76.588C56.8011 76.036 56.5971 75.556 56.2011 75.16C55.8051 74.764 55.3251 74.56 54.7731 74.56C54.2091 74.56 53.7411 74.764 53.3451 75.148C52.9491 75.544 52.7451 76.024 52.7451 76.588C52.7451 77.14 52.9491 77.62 53.3451 78.016C53.7411 78.412 54.2211 78.604 54.7731 78.604C55.3371 78.604 55.8051 78.412 56.2011 78.028ZM62.1716 78.52H62.8316V80.164H62.3636V78.988H58.3916V80.164H57.9236V78.52H58.5716V75.976C58.5716 75.388 58.7276 74.92 59.0396 74.584C59.3636 74.248 59.8076 74.068 60.3836 74.068C60.9596 74.068 61.4036 74.236 61.7156 74.572C62.0276 74.908 62.1716 75.376 62.1716 75.976V78.52ZM61.7036 78.52V75.976C61.7036 75.52 61.5956 75.16 61.3916 74.92C61.1876 74.668 60.8516 74.536 60.3836 74.536C59.4956 74.536 59.0396 75.016 59.0396 75.976V78.52H61.7036ZM66.8179 78.46C67.1539 78.316 67.4539 78.028 67.7179 77.608L68.1499 77.8C67.8499 78.376 67.3819 78.772 66.7459 78.976C66.5059 79.048 66.2299 79.084 65.9299 79.084C65.2099 79.084 64.6099 78.844 64.1419 78.376C63.6619 77.896 63.4339 77.308 63.4339 76.588C63.4339 75.856 63.6619 75.268 64.1299 74.8C64.6099 74.32 65.2099 74.08 65.9299 74.08C66.6499 74.08 67.2379 74.308 67.7059 74.752C68.1859 75.196 68.4139 75.772 68.4139 76.48H63.8899C63.8899 77.14 64.0699 77.656 64.4179 78.04C64.7899 78.424 65.2939 78.616 65.9299 78.616C66.2539 78.616 66.5539 78.568 66.8179 78.46ZM65.9299 74.548C64.9339 74.548 64.2739 75.04 63.9619 76.024H67.8859C67.8019 75.58 67.5739 75.22 67.1899 74.944C66.8299 74.68 66.4099 74.548 65.9299 74.548ZM72.8624 76.12L75.1784 78.988H74.5544L72.5264 76.468L72.5144 76.48L72.2504 76.744V78.988H71.7824V76.744L71.5064 76.48V76.468L69.4664 78.988H68.8544L71.1584 76.12L69.1904 74.164H69.8624L71.7704 76.06L71.7824 76.072V74.164H72.2504V76.072V76.06L74.1584 74.164H74.8424L72.8624 76.12ZM79.0406 74.164H79.5086V78.988H79.0406V76.816H76.2566V78.988H75.7886V74.164H76.2566V76.348H79.0406V74.164ZM81.6881 76.108C82.4561 76.108 82.8521 76.264 83.1761 76.612C83.4881 76.948 83.5481 77.248 83.5481 77.596C83.5481 78.004 83.4041 78.34 83.1161 78.604C82.8161 78.868 82.4681 78.988 82.0361 78.988H80.4761V74.164H80.9321V76.108H81.6881ZM82.7681 78.292C82.9841 78.1 83.1041 77.86 83.1041 77.548C83.1041 77.236 82.9841 76.984 82.7561 76.792C82.5401 76.612 82.2761 76.516 81.9641 76.516H80.9321V78.58H81.9641C82.2761 78.58 82.5401 78.484 82.7681 78.292ZM84.3761 78.988H83.9081V74.164H84.3761V78.988ZM87.2231 74.068C86.6951 74.068 86.4431 73.828 86.2391 73.636L86.1911 73.588L86.5151 73.252L86.5751 73.3C86.7431 73.468 86.8751 73.6 87.2231 73.6C87.5591 73.6 87.7031 73.468 87.8711 73.3L87.9311 73.252L88.2551 73.588L88.1951 73.636C88.0031 73.828 87.7511 74.068 87.2231 74.068ZM88.6031 74.164H89.0831V78.988H88.6031V78.412C88.3871 78.832 87.9191 79.048 87.2111 79.048C86.6111 79.048 86.1551 78.88 85.8311 78.532C85.5191 78.196 85.3631 77.716 85.3631 77.104V74.164H85.8311V77.056C85.8311 78.076 86.2991 78.58 87.2111 78.58C87.6671 78.58 88.0151 78.448 88.2431 78.184C88.4831 77.92 88.6031 77.56 88.6031 77.104V74.164ZM93.5308 74.164H97.2748V78.988H96.8068V74.632H93.9988V78.988H93.5308V74.164ZM100.594 74.068C101.974 74.068 103.102 75.196 103.102 76.576C103.102 77.956 101.974 79.084 100.594 79.084C99.2137 79.084 98.0977 77.956 98.0977 76.576C98.0977 75.196 99.2137 74.068 100.594 74.068ZM100.594 78.604C101.71 78.604 102.622 77.692 102.622 76.576C102.622 75.46 101.71 74.548 100.594 74.548C99.4777 74.548 98.5657 75.46 98.5657 76.576C98.5657 77.692 99.4777 78.604 100.594 78.604ZM106.277 74.548C105.161 74.548 104.249 75.46 104.249 76.576C104.249 77.692 105.161 78.604 106.277 78.604C106.913 78.604 107.417 78.424 107.753 78.064C107.789 78.04 107.813 78.004 107.837 77.968V78.616C107.429 78.916 106.901 79.084 106.277 79.084C104.897 79.084 103.781 77.956 103.781 76.576C103.781 75.196 104.897 74.068 106.277 74.068C106.901 74.068 107.429 74.236 107.837 74.536V75.172C107.813 75.148 107.777 75.112 107.753 75.088C107.417 74.728 106.913 74.548 106.277 74.548ZM108.312 74.176H111.156V74.656H109.968V79H109.488V74.656H108.312V74.176ZM116.061 74.164H116.541V78.988H116.061V78.16C115.557 78.772 114.909 79.072 114.129 79.072C113.433 79.072 112.845 78.832 112.365 78.364C111.885 77.884 111.645 77.284 111.645 76.588C111.645 75.88 111.873 75.292 112.353 74.824C112.833 74.332 113.433 74.092 114.129 74.092C114.897 74.092 115.545 74.404 116.061 75.004V74.164ZM115.557 78.028C115.953 77.62 116.145 77.152 116.157 76.588C116.157 76.036 115.953 75.556 115.557 75.16C115.161 74.764 114.681 74.56 114.129 74.56C113.565 74.56 113.097 74.764 112.701 75.148C112.305 75.544 112.101 76.024 112.101 76.588C112.101 77.14 112.305 77.62 112.701 78.016C113.097 78.412 113.577 78.604 114.129 78.604C114.693 78.604 115.161 78.412 115.557 78.028ZM120.219 76.612C120.543 76.948 120.603 77.248 120.603 77.596C120.603 78.004 120.459 78.34 120.159 78.604C119.871 78.868 119.511 78.988 119.091 78.988H117.519V74.164H118.695C119.067 74.164 119.367 74.26 119.583 74.452C119.811 74.668 119.979 74.968 119.979 75.34C119.979 75.724 119.847 76 119.559 76.204C119.835 76.288 120.039 76.42 120.219 76.612ZM118.695 74.644H117.987V76.108H118.731C118.959 76.108 119.151 76.036 119.307 75.892C119.463 75.748 119.535 75.58 119.535 75.388C119.535 75.148 119.463 74.98 119.307 74.848C119.139 74.704 118.923 74.644 118.695 74.644ZM119.811 78.292C120.039 78.1 120.147 77.86 120.147 77.548C120.147 77.236 120.039 76.984 119.811 76.792C119.595 76.612 119.331 76.516 119.007 76.516H117.987V78.58H119.007C119.319 78.58 119.595 78.484 119.811 78.292ZM126.894 74.164H127.362V78.472C127.362 79.36 126.642 80.092 125.754 80.092V79.612C126.33 79.612 126.81 79.18 126.882 78.616C126.594 78.904 126.198 79.084 125.754 79.084C125.166 79.084 124.65 78.772 124.362 78.304C124.086 78.772 123.57 79.084 122.982 79.084C122.094 79.084 121.374 78.364 121.374 77.464V74.164H121.842V77.464C121.842 78.1 122.358 78.616 122.982 78.616C123.618 78.616 124.134 78.1 124.134 77.464V74.164H124.602V77.464C124.602 78.1 125.118 78.616 125.754 78.616C126.378 78.616 126.894 78.1 126.894 77.464V74.164ZM131.539 74.164H132.019V78.988H131.539V78.412C131.323 78.832 130.855 79.048 130.147 79.048C129.547 79.048 129.091 78.88 128.767 78.532C128.455 78.196 128.299 77.716 128.299 77.104V74.164H128.767V77.056C128.767 78.076 129.235 78.58 130.147 78.58C130.603 78.58 130.951 78.448 131.179 78.184C131.419 77.92 131.539 77.56 131.539 77.104V74.164ZM134.068 76.156L136.912 78.988H136.276L133.756 76.48L133.48 76.744V78.988H133.012V73.972H133.48V76.06L135.58 73.984H136.252L134.068 76.156ZM142.29 74.08C143.67 74.08 144.798 75.196 144.798 76.576C144.798 77.956 143.67 79.084 142.29 79.084C141.678 79.084 141.138 78.928 140.742 78.616V77.98C140.766 78.004 140.79 78.04 140.814 78.064C141.162 78.436 141.654 78.616 142.29 78.616C143.334 78.616 144.198 77.824 144.306 76.816H141.966V76.348H144.306C144.198 75.34 143.334 74.548 142.29 74.548C141.654 74.548 141.162 74.728 140.814 75.088C140.79 75.124 140.766 75.148 140.742 75.184V74.548C141.138 74.236 141.678 74.08 142.29 74.08ZM147.541 73.96L149.821 78.988H149.317L147.553 75.148L145.789 78.988H145.261L147.541 73.96ZM153.689 78.46C154.025 78.316 154.325 78.028 154.589 77.608L155.021 77.8C154.721 78.376 154.253 78.772 153.617 78.976C153.377 79.048 153.101 79.084 152.801 79.084C152.081 79.084 151.481 78.844 151.013 78.376C150.533 77.896 150.305 77.308 150.305 76.588C150.305 75.856 150.533 75.268 151.001 74.8C151.481 74.32 152.081 74.08 152.801 74.08C153.521 74.08 154.109 74.308 154.577 74.752C155.057 75.196 155.285 75.772 155.285 76.48H150.761C150.761 77.14 150.941 77.656 151.289 78.04C151.661 78.424 152.165 78.616 152.801 78.616C153.125 78.616 153.425 78.568 153.689 78.46ZM152.801 74.548C151.805 74.548 151.145 75.04 150.833 76.024H154.757C154.673 75.58 154.445 75.22 154.061 74.944C153.701 74.68 153.281 74.548 152.801 74.548ZM157.165 76.156L160.009 78.988H159.373L156.853 76.48L156.577 76.744V78.988H156.109V73.972H156.577V76.06L158.677 73.984H159.349L157.165 76.156ZM160.238 74.176H163.082V74.656H161.894V79H161.414V74.656H160.238V74.176ZM167.95 74.812C168.43 75.292 168.682 75.88 168.682 76.588C168.682 77.284 168.442 77.872 167.962 78.352C167.482 78.832 166.882 79.072 166.186 79.072C165.382 79.072 164.722 78.748 164.194 78.088V81.256H163.726V74.164H164.194V75.076C164.698 74.428 165.358 74.092 166.186 74.092C166.882 74.092 167.47 74.332 167.95 74.812ZM167.614 78.028C168.01 77.62 168.214 77.152 168.214 76.588C168.214 76.036 168.01 75.556 167.614 75.16C167.218 74.764 166.738 74.56 166.186 74.56C165.622 74.56 165.154 74.752 164.758 75.148C164.362 75.544 164.17 76.024 164.17 76.588C164.17 77.14 164.362 77.608 164.758 78.016C165.154 78.412 165.634 78.604 166.186 78.604C166.75 78.604 167.218 78.412 167.614 78.028ZM171.855 74.068C173.235 74.068 174.363 75.196 174.363 76.576C174.363 77.956 173.235 79.084 171.855 79.084C170.475 79.084 169.359 77.956 169.359 76.576C169.359 75.196 170.475 74.068 171.855 74.068ZM171.855 78.604C172.971 78.604 173.883 77.692 173.883 76.576C173.883 75.46 172.971 74.548 171.855 74.548C170.739 74.548 169.827 75.46 169.827 76.576C169.827 77.692 170.739 78.604 171.855 78.604ZM174.851 74.176H177.695V74.656H176.507V79H176.027V74.656H174.851V74.176ZM181.58 78.46C181.916 78.316 182.216 78.028 182.48 77.608L182.912 77.8C182.612 78.376 182.144 78.772 181.508 78.976C181.268 79.048 180.992 79.084 180.692 79.084C179.972 79.084 179.372 78.844 178.904 78.376C178.424 77.896 178.196 77.308 178.196 76.588C178.196 75.856 178.424 75.268 178.892 74.8C179.372 74.32 179.972 74.08 180.692 74.08C181.412 74.08 182 74.308 182.468 74.752C182.948 75.196 183.176 75.772 183.176 76.48H178.652C178.652 77.14 178.832 77.656 179.18 78.04C179.552 78.424 180.056 78.616 180.692 78.616C181.016 78.616 181.316 78.568 181.58 78.46ZM180.692 74.548C179.696 74.548 179.036 75.04 178.724 76.024H182.648C182.564 75.58 182.336 75.22 181.952 74.944C181.592 74.68 181.172 74.548 180.692 74.548ZM185.92 76.552L187.552 78.988H186.988L185.62 76.972L184.252 78.988H183.688L185.332 76.564L183.712 74.164H184.276L185.62 76.168L186.952 74.164H187.516L185.92 76.552ZM191.494 74.164H191.962V78.988H191.494V76.816H188.71V78.988H188.242V74.164H188.71V76.348H191.494V74.164ZM196.133 74.164H196.613V78.988H196.133V78.412C195.917 78.832 195.449 79.048 194.741 79.048C194.141 79.048 193.685 78.88 193.361 78.532C193.049 78.196 192.893 77.716 192.893 77.104V74.164H193.361V77.056C193.361 78.076 193.829 78.58 194.741 78.58C195.197 78.58 195.545 78.448 195.773 78.184C196.013 77.92 196.133 77.56 196.133 77.104V74.164ZM198.662 76.156L201.506 78.988H200.87L198.35 76.48L198.074 76.744V78.988H197.606V73.972H198.074V76.06L200.174 73.984H200.846L198.662 76.156ZM205.274 74.164H205.754V78.988H205.274V78.412C205.058 78.832 204.59 79.048 203.882 79.048C203.282 79.048 202.826 78.88 202.502 78.532C202.19 78.196 202.034 77.716 202.034 77.104V74.164H202.502V77.056C202.502 78.076 202.97 78.58 203.882 78.58C204.338 78.58 204.686 78.448 204.914 78.184C205.154 77.92 205.274 77.56 205.274 77.104V74.164Z" fill="#737373"/>
</svg>
